<svg width="500" height="500" viewBox="0 0 500 500" fill="none" xmlns="http://www.w3.org/2000/svg">
<rect width="500" height="500" rx="250" fill="#1A1A1A"/>
<path d="M291.898 375.227C278.442 377.514 264.412 378.724 250 378.724C235.587 378.724 221.557 377.514 208.101 375.227C213.128 387.617 218.823 397.748 224.909 405.248C233.093 406.36 241.471 406.94 250 406.94C258.529 406.94 266.906 406.36 275.09 405.248C281.176 397.748 286.871 387.617 291.898 375.227ZM160.233 361.643C162.204 364.882 164.257 368.015 166.39 371.031C173.452 381.016 181.342 389.702 189.876 396.884C196.789 399.288 203.919 401.292 211.233 402.86C206.258 395.097 201.753 385.902 197.782 375.587C197.456 374.742 197.136 373.889 196.817 373.029C183.955 370.196 171.7 366.359 160.233 361.643ZM339.766 361.643C328.299 366.359 316.044 370.196 303.182 373.029C302.864 373.889 302.543 374.742 302.218 375.587C298.247 385.902 293.742 395.097 288.766 402.86C296.08 401.292 303.21 399.288 310.123 396.884C318.657 389.702 326.548 381.017 333.61 371.031C335.743 368.015 337.795 364.882 339.766 361.643ZM113.409 333.927C119.363 345.303 126.487 355.855 134.603 365.396C144.144 373.512 154.697 380.636 166.073 386.59C163.431 383.415 160.887 380.098 158.446 376.648C153.642 369.855 149.228 362.532 145.248 354.751C137.467 350.771 130.145 346.357 123.352 341.554C119.901 339.113 116.584 336.568 113.409 333.927ZM386.59 333.927C383.415 336.568 380.099 339.113 376.648 341.554C369.855 346.358 362.532 350.771 354.751 354.751C350.771 362.532 346.358 369.855 341.554 376.648C339.113 380.099 336.568 383.415 333.927 386.59C345.303 380.636 355.855 373.512 365.396 365.396C373.512 355.855 380.636 345.303 386.59 333.927ZM307.115 318.666C289.158 321.02 269.947 322.292 250 322.292C230.053 322.292 210.841 321.02 192.884 318.666C195.704 335.6 199.529 351.088 204.15 364.614C218.723 367.464 234.098 368.994 250 368.994C265.902 368.994 281.276 367.464 295.849 364.614C300.47 351.088 304.295 335.6 307.115 318.666ZM137.831 306.888C141.448 321.45 146.411 335.088 152.497 347.503C164.911 353.588 178.549 358.551 193.111 362.168C188.86 348.646 185.367 333.519 182.79 317.209C166.48 314.632 151.353 311.14 137.831 306.888ZM362.168 306.888C348.646 311.14 333.519 314.632 317.209 317.209C314.632 333.519 311.14 348.646 306.888 362.168C321.45 358.551 335.088 353.588 347.503 347.503C353.588 335.088 358.551 321.45 362.168 306.888ZM97.1387 288.766C98.7068 296.08 100.711 303.21 103.115 310.123C110.297 318.658 118.983 326.548 128.969 333.61C131.985 335.743 135.117 337.794 138.356 339.765C133.64 328.299 129.803 316.044 126.97 303.182C126.11 302.864 125.257 302.543 124.413 302.218C114.098 298.247 104.902 293.742 97.1387 288.766ZM402.86 288.766C395.097 293.742 385.902 298.247 375.587 302.218C374.742 302.543 373.889 302.864 373.029 303.182C370.196 316.044 366.359 328.299 361.643 339.765C364.882 337.794 368.015 335.743 371.031 333.61C381.017 326.548 389.702 318.657 396.884 310.123C399.288 303.21 401.292 296.08 402.86 288.766ZM138.356 160.233C135.117 162.204 131.985 164.257 128.969 166.39C118.983 173.452 110.297 181.342 103.115 189.876C100.711 196.789 98.7068 203.919 97.1387 211.233C104.902 206.257 114.098 201.753 124.413 197.782C125.257 197.457 126.11 197.135 126.97 196.817C129.803 183.955 133.64 171.7 138.356 160.233ZM361.643 160.233C366.359 171.7 370.196 183.955 373.029 196.817C373.889 197.136 374.742 197.456 375.587 197.782C385.902 201.753 395.097 206.258 402.86 211.233C401.292 203.919 399.288 196.789 396.884 189.876C389.702 181.342 381.016 173.452 371.031 166.39C368.015 164.257 364.882 162.204 361.643 160.233ZM193.111 137.831C178.55 141.448 164.911 146.411 152.497 152.497C146.411 164.911 141.448 178.55 137.831 193.111C151.353 188.859 166.48 185.367 182.79 182.79C185.367 166.48 188.859 151.353 193.111 137.831ZM306.888 137.831C311.14 151.353 314.632 166.48 317.209 182.79C333.519 185.367 348.646 188.86 362.168 193.111C358.551 178.549 353.588 164.911 347.503 152.497C335.088 146.411 321.45 141.448 306.888 137.831ZM250 131.006C234.098 131.006 218.723 132.535 204.15 135.385C199.529 148.911 195.704 164.399 192.884 181.333C210.841 178.979 230.053 177.708 250 177.708C269.947 177.708 289.158 178.979 307.115 181.333C304.295 164.399 300.47 148.911 295.849 135.385C281.276 132.535 265.902 131.006 250 131.006ZM166.073 113.409C154.697 119.363 144.144 126.487 134.603 134.603C126.487 144.144 119.363 154.697 113.409 166.073C116.584 163.431 119.901 160.887 123.352 158.446C130.145 153.642 137.467 149.228 145.248 145.248C149.228 137.467 153.642 130.145 158.446 123.352C160.887 119.901 163.431 116.584 166.073 113.409ZM333.927 113.409C336.568 116.584 339.113 119.901 341.554 123.352C346.357 130.145 350.771 137.467 354.751 145.248C362.532 149.228 369.855 153.642 376.648 158.446C380.098 160.887 383.415 163.431 386.59 166.073C380.636 154.697 373.512 144.144 365.396 134.603C355.855 126.487 345.303 119.363 333.927 113.409ZM211.233 97.1387C203.919 98.7068 196.789 100.711 189.876 103.115C181.342 110.297 173.452 118.983 166.39 128.969C164.257 131.985 162.204 135.117 160.233 138.356C171.7 133.64 183.955 129.803 196.817 126.97C197.135 126.11 197.457 125.257 197.782 124.413C201.753 114.098 206.257 104.902 211.233 97.1387ZM288.766 97.1387C293.742 104.902 298.247 114.098 302.218 124.413C302.543 125.257 302.864 126.11 303.182 126.97C316.044 129.803 328.299 133.64 339.766 138.356C337.795 135.117 335.743 131.985 333.61 128.969C326.548 118.983 318.658 110.297 310.123 103.115C303.21 100.711 296.08 98.7068 288.766 97.1387ZM250 93.0597C241.471 93.0597 233.093 93.6386 224.909 94.7509C218.823 102.251 213.128 112.382 208.101 124.772C221.557 122.485 235.588 121.276 250 121.276C264.412 121.276 278.443 122.485 291.898 124.772C286.871 112.382 281.176 102.251 275.09 94.7509C266.906 93.6387 258.529 93.0597 250 93.0597ZM93.0597 250C93.0597 258.529 93.6387 266.906 94.7509 275.09C102.251 281.176 112.382 286.871 124.772 291.898C122.485 278.443 121.276 264.412 121.276 250C121.276 235.588 122.485 221.557 124.772 208.101C112.382 213.128 102.251 218.823 94.7509 224.909C93.6386 233.093 93.0597 241.471 93.0597 250ZM131.006 250C131.006 265.902 132.535 281.276 135.385 295.849C148.911 300.47 164.399 304.295 181.333 307.115C178.979 289.158 177.708 269.947 177.708 250C177.708 230.053 178.979 210.841 181.333 192.884C164.399 195.704 148.911 199.529 135.385 204.15C132.535 218.723 131.006 234.098 131.006 250ZM187.438 250C187.438 270.625 188.826 290.369 191.357 308.642C209.631 311.173 229.375 312.562 250 312.562C270.625 312.562 290.369 311.173 308.642 308.642C311.173 290.369 312.562 270.625 312.562 250C312.562 229.375 311.173 209.631 308.642 191.357C290.369 188.826 270.625 187.438 250 187.438C229.375 187.438 209.63 188.826 191.357 191.357C188.826 209.63 187.438 229.375 187.438 250ZM322.292 250C322.292 269.947 321.02 289.158 318.666 307.115C335.6 304.295 351.088 300.47 364.614 295.849C367.464 281.276 368.994 265.902 368.994 250C368.994 234.098 367.464 218.723 364.614 204.15C351.088 199.529 335.6 195.704 318.666 192.884C321.02 210.841 322.292 230.053 322.292 250ZM378.724 250C378.724 264.412 377.514 278.442 375.227 291.898C387.617 286.871 397.748 281.176 405.248 275.09C406.36 266.906 406.94 258.529 406.94 250C406.94 241.471 406.36 233.093 405.248 224.909C397.748 218.823 387.617 213.128 375.227 208.101C377.514 221.557 378.724 235.587 378.724 250ZM430 250C430 349.411 349.411 430 250 430C150.589 430 70 349.411 70 250C70 150.589 150.589 70 250 70C349.411 70 430 150.589 430 250Z" fill="white"/>
</svg>
