<svg version="1.1" viewBox="0.0 0.0 1024.0 1024.0" fill="none" stroke="none" stroke-linecap="square" stroke-miterlimit="10" xmlns:xlink="http://www.w3.org/1999/xlink" xmlns="http://www.w3.org/2000/svg"><clipPath id="p.0"><path d="m0 0l1024.0 0l0 1024.0l-1024.0 0l0 -1024.0z" clip-rule="nonzero"/></clipPath><g clip-path="url(#p.0)"><path fill="#000000" fill-opacity="0.0" d="m0 0l1024.0 0l0 1024.0l-1024.0 0z" fill-rule="evenodd"/><path fill="#fafaf7" d="m0 0l1024.0 0l0 1024.0l-1024.0 0z" fill-rule="evenodd"/><path fill="#000000" fill-opacity="0.0" d="m0 0l1024.0 0l0 1024.0l-1024.0 0z" fill-rule="evenodd"/><path fill="#000000" d="m405.08755 533.9613q11.453125 12.734375 16.921875 27.875q5.484375 15.140625 5.484375 35.265625q0 47.84375 -35.390625 78.90625q-35.375 31.046875 -87.8125 31.046875q-24.1875 0 -48.375 -7.5q-24.1875 -7.515625 -41.75 -18.203125l-10.9375 18.578125l-20.375 0l-3.5625 -123.703125l20.625 0q6.359375 22.90625 14.890625 41.359375q8.53125 18.453125 22.53125 34.484375q13.234375 15.03125 30.921875 23.9375q17.703125 8.90625 41.109375 8.90625q17.5625 0 30.671875 -4.578125q13.109375 -4.578125 21.265625 -12.984375q8.140625 -8.40625 12.078125 -19.734375q3.953125 -11.328125 3.953125 -26.078125q0 -21.640625 -12.21875 -40.34375q-12.21875 -18.71875 -36.390625 -28.390625q-16.546875 -6.625 -37.9375 -14.640625q-21.375 -8.015625 -36.90625 -15.140625q-30.546875 -13.75 -47.484375 -36.015625q-16.921875 -22.28125 -16.921875 -58.171875q0 -20.625 8.390625 -38.4375q8.40625 -17.828125 23.9375 -31.828125q14.765625 -13.234375 34.875 -20.734375q20.109375 -7.515625 42.0 -7.515625q24.953125 0 44.671875 7.640625q19.734375 7.640625 36.03125 17.8125l10.421875 -17.3125l20.375 0l2.03125 119.90625l-20.609375 0q-5.609375 -20.625 -12.609375 -39.453125q-7.0 -18.84375 -18.203125 -34.125q-10.9375 -14.75 -26.71875 -23.53125q-15.78125 -8.796875 -38.703125 -8.796875q-24.171875 0 -41.234375 15.53125q-17.046875 15.53125 -17.046875 37.9375q0 23.40625 10.9375 38.8125q10.953125 15.40625 31.828125 25.328125q18.578125 8.90625 36.515625 15.40625q17.953125 6.484375 34.75 13.875q15.28125 6.609375 29.40625 15.015625q14.125 8.390625 24.5625 19.59375zm427.65524 137.96875q0 13.5 -9.9375 23.171875q-9.921875 9.671875 -23.40625 9.671875q-13.5 0 -23.4375 -9.671875q-9.921875 -9.671875 -9.921875 -23.171875q0 -13.484375 9.796875 -23.40625q9.8125 -9.9375 23.5625 -9.9375q13.734375 0 23.53125 9.9375q9.8125 9.921875 9.8125 23.40625zm-140.26562 0q0 13.75 -10.0625 23.296875q-10.046875 9.546875 -23.28125 9.546875q-13.5 0 -23.421875 -9.671875q-9.921875 -9.671875 -9.921875 -23.171875q0 -13.484375 9.796875 -23.40625q9.796875 -9.9375 23.546875 -9.9375q13.484375 0 23.40625 9.9375q9.9375 9.921875 9.9375 23.40625zm-140.25 0q0 13.75 -10.0625 23.296875q-10.0625 9.546875 -23.296875 9.546875q-13.4843445 0 -23.421844 -9.671875q-9.921875 -9.671875 -9.921875 -23.171875q0 -13.484375 9.796875 -23.40625q9.8125 -9.9375 23.546844 -9.9375q13.5 0 23.421875 9.9375q9.9375 9.921875 9.9375 23.40625z" fill-rule="nonzero"/></g></svg>