<svg width="1308" height="414" viewBox="0 0 1308 414" fill="none" xmlns="http://www.w3.org/2000/svg">
<path d="M424.261 143.997V153.901H414.357V143.997H424.261ZM434.164 143.997V153.901H424.261V143.997H434.164ZM444.068 143.997V153.901H434.164V143.997H444.068ZM453.972 143.997V153.901H444.068V143.997H453.972ZM453.972 153.901V163.805H444.068V153.901H453.972ZM463.876 153.901V163.805H453.972V153.901H463.876ZM463.876 163.805V173.709H453.972V163.805H463.876ZM463.876 143.997V153.901H453.972V143.997H463.876ZM463.876 173.709V183.613H453.972V173.709H463.876ZM463.876 183.613V193.517H453.972V183.613H463.876ZM463.876 193.517V203.42H453.972V193.517H463.876ZM463.876 203.42V213.324H453.972V203.42H463.876ZM463.876 213.324V223.228H453.972V213.324H463.876ZM463.876 223.228V233.132H453.972V223.228H463.876ZM463.876 233.132V243.036H453.972V233.132H463.876ZM463.876 243.036V252.94H453.972V243.036H463.876ZM463.876 252.94V262.843H453.972V252.94H463.876ZM453.972 252.94V262.843H444.068V252.94H453.972ZM444.068 262.843V272.747H434.164V262.843H444.068ZM434.164 262.843V272.747H424.261V262.843H434.164ZM424.261 262.843V272.747H414.357V262.843H424.261ZM424.261 252.94V262.843H414.357V252.94H424.261ZM424.261 243.036V252.94H414.357V243.036H424.261ZM424.261 233.132V243.036H414.357V233.132H424.261ZM424.261 223.228V233.132H414.357V223.228H424.261ZM434.164 223.228V233.132H424.261V223.228H434.164ZM434.164 213.324V223.228H424.261V213.324H434.164ZM434.164 203.42V213.324H424.261V203.42H434.164ZM434.164 193.517V203.42H424.261V193.517H434.164ZM434.164 183.613V193.517H424.261V183.613H434.164ZM434.164 173.709V183.613H424.261V173.709H434.164ZM434.164 163.805V173.709H424.261V163.805H434.164ZM434.164 153.901V163.805H424.261V153.901H434.164ZM424.261 153.901V163.805H414.357V153.901H424.261ZM424.261 163.805V173.709H414.357V163.805H424.261ZM424.261 173.709V183.613H414.357V173.709H424.261ZM424.261 183.613V193.517H414.357V183.613H424.261ZM424.261 193.517V203.42H414.357V193.517H424.261ZM424.261 203.42V213.324H414.357V203.42H424.261ZM424.261 213.324V223.228H414.357V213.324H424.261ZM444.068 193.517V203.42H434.164V193.517H444.068ZM444.068 183.613V193.517H434.164V183.613H444.068ZM444.068 173.709V183.613H434.164V173.709H444.068ZM444.068 163.805V173.709H434.164V163.805H444.068ZM444.068 153.901V163.805H434.164V153.901H444.068ZM453.972 193.517V203.42H444.068V193.517H453.972ZM453.972 203.42V213.324H444.068V203.42H453.972ZM453.972 183.613V193.517H444.068V183.613H453.972ZM453.972 173.709V183.613H444.068V173.709H453.972ZM453.972 163.805V173.709H444.068V163.805H453.972ZM444.068 223.228V233.132H434.164V223.228H444.068ZM444.068 213.324V223.228H434.164V213.324H444.068ZM444.068 203.42V213.324H434.164V203.42H444.068ZM453.972 213.324V223.228H444.068V213.324H453.972ZM453.972 223.228V233.132H444.068V223.228H453.972ZM453.972 233.132V243.036H444.068V233.132H453.972ZM444.068 243.036V252.94H434.164V243.036H444.068ZM444.068 252.94V262.843H434.164V252.94H444.068ZM444.068 233.132V243.036H434.164V233.132H444.068ZM434.164 233.132V243.036H424.261V233.132H434.164ZM434.164 243.036V252.94H424.261V243.036H434.164ZM434.164 252.94V262.843H424.261V252.94H434.164ZM453.972 243.036V252.94H444.068V243.036H453.972ZM444.068 272.747V282.651H434.164V272.747H444.068ZM434.164 272.747V282.651H424.261V272.747H434.164ZM453.972 272.747V282.651H444.068V272.747H453.972ZM453.972 262.843V272.747H444.068V262.843H453.972ZM463.876 262.843V272.747H453.972V262.843H463.876ZM473.78 262.843V272.747H463.876V262.843H473.78ZM473.78 272.747V282.651H463.876V272.747H473.78ZM463.876 272.747V282.651H453.972V272.747H463.876ZM483.684 272.747V282.651H473.78V272.747H483.684ZM444.068 282.651V292.555H434.164V282.651H444.068ZM453.972 282.651V292.555H444.068V282.651H453.972ZM463.876 282.651V292.555H453.972V282.651H463.876ZM473.78 282.651V292.555H463.876V282.651H473.78ZM483.684 282.651V292.555H473.78V282.651H483.684ZM493.587 282.651V292.555H483.684V282.651H493.587ZM503.491 282.651V292.555H493.587V282.651H503.491ZM513.395 282.651V292.555H503.491V282.651H513.395ZM523.299 282.651V292.555H513.395V282.651H523.299ZM533.203 282.651V292.555H523.299V282.651H533.203ZM543.106 282.651V292.555H533.203V282.651H543.106ZM553.01 282.651V292.555H543.106V282.651H553.01ZM543.106 272.747V282.651H533.203V272.747H543.106ZM533.203 272.747V282.651H523.299V272.747H533.203ZM523.299 272.747V282.651H513.395V272.747H523.299ZM513.395 272.747V282.651H503.491V272.747H513.395ZM523.299 262.843V272.747H513.395V262.843H523.299ZM533.203 262.843V272.747H523.299V262.843H533.203ZM543.106 262.843V272.747H533.203V262.843H543.106ZM553.01 262.843V272.747H543.106V262.843H553.01ZM562.914 262.843V272.747H553.01V262.843H562.914ZM562.914 272.747V282.651H553.01V272.747H562.914ZM553.01 272.747V282.651H543.106V272.747H553.01ZM572.818 262.843V272.747H562.914V262.843H572.818ZM483.684 322.266V332.17H473.78V322.266H483.684ZM483.684 312.363V322.266H473.78V312.363H483.684ZM483.684 302.459V312.363H473.78V302.459H483.684ZM493.587 302.459V312.363H483.684V302.459H493.587ZM493.587 292.555V302.459H483.684V292.555H493.587ZM503.491 292.555V302.459H493.587V292.555H503.491ZM513.395 292.555V302.459H503.491V292.555H513.395ZM513.395 302.459V312.363H503.491V302.459H513.395ZM513.395 312.363V322.266H503.491V312.363H513.395ZM513.395 322.266V332.17H503.491V322.266H513.395ZM503.491 322.266V332.17H493.587V322.266H503.491ZM493.587 322.266V332.17H483.684V322.266H493.587ZM493.587 312.363V322.266H483.684V312.363H493.587ZM503.491 302.459V312.363H493.587V302.459H503.491ZM503.491 312.363V322.266H493.587V312.363H503.491ZM523.299 302.459V312.363H513.395V302.459H523.299ZM523.299 292.555V302.459H513.395V292.555H523.299ZM533.203 292.555V302.459H523.299V292.555H533.203ZM543.106 292.555V302.459H533.203V292.555H543.106ZM533.203 302.459V312.363H523.299V302.459H533.203ZM523.299 312.363V322.266H513.395V312.363H523.299ZM453.972 292.555V302.459H444.068V292.555H453.972ZM463.876 292.555V302.459H453.972V292.555H463.876ZM463.876 302.459V312.363H453.972V302.459H463.876ZM473.78 302.459V312.363H463.876V302.459H473.78ZM473.78 312.363V322.266H463.876V312.363H473.78ZM483.684 292.555V302.459H473.78V292.555H483.684ZM473.78 292.555V302.459H463.876V292.555H473.78ZM533.203 252.94V262.843H523.299V252.94H533.203ZM533.203 243.036V252.94H523.299V243.036H533.203ZM533.203 233.132V243.036H523.299V233.132H533.203ZM533.203 223.228V233.132H523.299V223.228H533.203ZM543.106 223.228V233.132H533.203V223.228H543.106ZM553.01 223.228V233.132H543.106V223.228H553.01ZM562.914 223.228V233.132H553.01V223.228H562.914ZM572.818 223.228V233.132H562.914V223.228H572.818ZM572.818 233.132V243.036H562.914V233.132H572.818ZM572.818 243.036V252.94H562.914V243.036H572.818ZM572.818 252.94V262.843H562.914V252.94H572.818ZM562.914 252.94V262.843H553.01V252.94H562.914ZM553.01 252.94V262.843H543.106V252.94H553.01ZM543.106 252.94V262.843H533.203V252.94H543.106ZM553.01 243.036V252.94H543.106V243.036H553.01ZM562.914 243.036V252.94H553.01V243.036H562.914ZM562.914 233.132V243.036H553.01V233.132H562.914ZM553.01 233.132V243.036H543.106V233.132H553.01ZM543.106 233.132V243.036H533.203V233.132H543.106ZM543.106 243.036V252.94H533.203V243.036H543.106ZM533.203 213.324V223.228H523.299V213.324H533.203ZM533.203 203.42V213.324H523.299V203.42H533.203ZM533.203 193.517V203.42H523.299V193.517H533.203ZM533.203 183.613V193.517H523.299V183.613H533.203ZM533.203 173.709V183.613H523.299V173.709H533.203ZM533.203 163.805V173.709H523.299V163.805H533.203ZM533.203 153.901V163.805H523.299V153.901H533.203ZM533.203 143.997V153.901H523.299V143.997H533.203ZM543.106 153.901V163.805H533.203V153.901H543.106ZM543.106 143.997V153.901H533.203V143.997H543.106ZM553.01 143.997V153.901H543.106V143.997H553.01ZM562.914 143.997V153.901H553.01V143.997H562.914ZM562.914 153.901V163.805H553.01V153.901H562.914ZM562.914 163.805V173.709H553.01V163.805H562.914ZM572.818 163.805V173.709H562.914V163.805H572.818ZM572.818 173.709V183.613H562.914V173.709H572.818ZM572.818 183.613V193.517H562.914V183.613H572.818ZM572.818 193.517V203.42H562.914V193.517H572.818ZM572.818 203.42V213.324H562.914V203.42H572.818ZM572.818 213.324V223.228H562.914V213.324H572.818ZM572.818 153.901V163.805H562.914V153.901H572.818ZM572.818 143.997V153.901H562.914V143.997H572.818ZM553.01 153.901V163.805H543.106V153.901H553.01ZM553.01 163.805V173.709H543.106V163.805H553.01ZM553.01 173.709V183.613H543.106V173.709H553.01ZM553.01 183.613V193.517H543.106V183.613H553.01ZM553.01 193.517V203.42H543.106V193.517H553.01ZM553.01 203.42V213.324H543.106V203.42H553.01ZM543.106 203.42V213.324H533.203V203.42H543.106ZM543.106 213.324V223.228H533.203V213.324H543.106ZM543.106 193.517V203.42H533.203V193.517H543.106ZM543.106 183.613V193.517H533.203V183.613H543.106ZM543.106 173.709V183.613H533.203V173.709H543.106ZM543.106 163.805V173.709H533.203V163.805H543.106ZM562.914 173.709V183.613H553.01V173.709H562.914ZM562.914 183.613V193.517H553.01V183.613H562.914ZM562.914 193.517V203.42H553.01V193.517H562.914ZM562.914 203.42V213.324H553.01V203.42H562.914ZM562.914 213.324V223.228H553.01V213.324H562.914ZM553.01 213.324V223.228H543.106V213.324H553.01ZM721.569 203.42V213.324H711.665V203.42H721.569ZM731.473 203.42V213.324H721.569V203.42H731.473ZM741.376 203.42V213.324H731.473V203.42H741.376ZM751.28 203.42V213.324H741.376V203.42H751.28ZM761.184 203.42V213.324H751.28V203.42H761.184ZM761.184 193.517V203.42H751.28V193.517H761.184ZM761.184 183.613V193.517H751.28V183.613H761.184ZM751.28 183.613V193.517H741.376V183.613H751.28ZM741.376 183.613V193.517H731.473V183.613H741.376ZM731.473 183.613V193.517H721.569V183.613H731.473ZM731.473 193.517V203.42H721.569V193.517H731.473ZM721.569 193.517V203.42H711.665V193.517H721.569ZM741.376 193.517V203.42H731.473V193.517H741.376ZM751.28 193.517V203.42H741.376V193.517H751.28ZM721.569 183.613V193.517H711.665V183.613H721.569ZM711.665 183.613V193.517H701.761V183.613H711.665ZM711.665 173.709V183.613H701.761V173.709H711.665ZM721.569 173.709V183.613H711.665V173.709H721.569ZM731.473 173.709V183.613H721.569V173.709H731.473ZM741.376 173.709V183.613H731.473V173.709H741.376ZM751.28 173.709V183.613H741.376V173.709H751.28ZM751.28 163.805V173.709H741.376V163.805H751.28ZM741.376 163.805V173.709H731.473V163.805H741.376ZM731.473 163.805V173.709H721.569V163.805H731.473ZM721.569 163.805V173.709H711.665V163.805H721.569ZM711.665 163.805V173.709H701.761V163.805H711.665ZM731.473 153.901V163.805H721.569V153.901H731.473ZM741.376 153.901V163.805H731.473V153.901H741.376ZM721.569 153.901V163.805H711.665V153.901H721.569ZM721.569 143.997V153.901H711.665V143.997H721.569ZM711.665 143.997V153.901H701.761V143.997H711.665ZM711.665 153.901V163.805H701.761V153.901H711.665ZM701.761 153.901V163.805H691.857V153.901H701.761ZM701.761 143.997V153.901H691.857V143.997H701.761ZM701.761 163.805V173.709H691.857V163.805H701.761ZM691.857 163.805V173.709H681.954V163.805H691.857ZM691.857 173.709V183.613H681.954V173.709H691.857ZM701.761 173.709V183.613H691.857V173.709H701.761ZM681.954 173.709V183.613H672.05V173.709H681.954ZM681.954 163.805V173.709H672.05V163.805H681.954ZM681.954 153.901V163.805H672.05V153.901H681.954ZM681.954 143.997V153.901H672.05V143.997H681.954ZM691.857 143.997V153.901H681.954V143.997H691.857ZM691.857 153.901V163.805H681.954V153.901H691.857ZM672.05 143.997V153.901H662.146V143.997H672.05ZM662.146 143.997V153.901H652.242V143.997H662.146ZM652.242 143.997V153.901H642.338V143.997H652.242ZM652.242 153.901V163.805H642.338V153.901H652.242ZM652.242 163.805V173.709H642.338V163.805H652.242ZM652.242 173.709V183.613H642.338V173.709H652.242ZM662.146 173.709V183.613H652.242V173.709H662.146ZM672.05 173.709V183.613H662.146V173.709H672.05ZM672.05 163.805V173.709H662.146V163.805H672.05ZM672.05 153.901V163.805H662.146V153.901H672.05ZM662.146 153.901V163.805H652.242V153.901H662.146ZM662.146 163.805V173.709H652.242V163.805H662.146ZM642.338 163.805V173.709H632.434V163.805H642.338ZM642.338 153.901V163.805H632.434V153.901H642.338ZM632.434 153.901V163.805H622.531V153.901H632.434ZM632.434 163.805V173.709H622.531V163.805H632.434ZM622.531 163.805V173.709H612.627V163.805H622.531ZM622.531 173.709V183.613H612.627V173.709H622.531ZM622.531 183.613V193.517H612.627V183.613H622.531ZM632.434 183.613V193.517H622.531V183.613H632.434ZM632.434 173.709V183.613H622.531V173.709H632.434ZM642.338 173.709V183.613H632.434V173.709H642.338ZM642.338 183.613V193.517H632.434V183.613H642.338ZM652.242 183.613V193.517H642.338V183.613H652.242ZM662.146 183.613V193.517H652.242V183.613H662.146ZM612.627 183.613V193.517H602.723V183.613H612.627ZM612.627 193.517V203.42H602.723V193.517H612.627ZM612.627 203.42V213.324H602.723V203.42H612.627ZM612.627 213.324V223.228H602.723V213.324H612.627ZM612.627 223.228V233.132H602.723V223.228H612.627ZM612.627 233.132V243.036H602.723V233.132H612.627ZM612.627 243.036V252.94H602.723V243.036H612.627ZM612.627 252.94V262.843H602.723V252.94H612.627ZM612.627 262.843V272.747H602.723V262.843H612.627ZM612.627 272.747V282.651H602.723V272.747H612.627ZM622.531 272.747V282.651H612.627V272.747H622.531ZM622.531 282.651V292.555H612.627V282.651H622.531ZM612.627 282.651V292.555H602.723V282.651H612.627ZM632.434 282.651V292.555H622.531V282.651H632.434ZM642.338 282.651V292.555H632.434V282.651H642.338ZM652.242 282.651V292.555H642.338V282.651H652.242ZM662.146 282.651V292.555H652.242V282.651H662.146ZM652.242 272.747V282.651H642.338V272.747H652.242ZM652.242 262.843V272.747H642.338V262.843H652.242ZM652.242 252.94V262.843H642.338V252.94H652.242ZM652.242 243.036V252.94H642.338V243.036H652.242ZM652.242 233.132V243.036H642.338V233.132H652.242ZM652.242 223.228V233.132H642.338V223.228H652.242ZM652.242 213.324V223.228H642.338V213.324H652.242ZM652.242 203.42V213.324H642.338V203.42H652.242ZM652.242 193.517V203.42H642.338V193.517H652.242ZM642.338 193.517V203.42H632.434V193.517H642.338ZM632.434 193.517V203.42H622.531V193.517H632.434ZM622.531 193.517V203.42H612.627V193.517H622.531ZM622.531 203.42V213.324H612.627V203.42H622.531ZM622.531 213.324V223.228H612.627V213.324H622.531ZM622.531 223.228V233.132H612.627V223.228H622.531ZM622.531 233.132V243.036H612.627V233.132H622.531ZM622.531 243.036V252.94H612.627V243.036H622.531ZM622.531 252.94V262.843H612.627V252.94H622.531ZM622.531 262.843V272.747H612.627V262.843H622.531ZM632.434 272.747V282.651H622.531V272.747H632.434ZM642.338 272.747V282.651H632.434V272.747H642.338ZM642.338 262.843V272.747H632.434V262.843H642.338ZM642.338 252.94V262.843H632.434V252.94H642.338ZM642.338 243.036V252.94H632.434V243.036H642.338ZM642.338 233.132V243.036H632.434V233.132H642.338ZM632.434 233.132V243.036H622.531V233.132H632.434ZM632.434 223.228V233.132H622.531V223.228H632.434ZM632.434 213.324V223.228H622.531V213.324H632.434ZM632.434 203.42V213.324H622.531V203.42H632.434ZM642.338 203.42V213.324H632.434V203.42H642.338ZM642.338 213.324V223.228H632.434V213.324H642.338ZM642.338 223.228V233.132H632.434V223.228H642.338ZM632.434 252.94V262.843H622.531V252.94H632.434ZM632.434 262.843V272.747H622.531V262.843H632.434ZM632.434 243.036V252.94H622.531V243.036H632.434ZM721.569 272.747V282.651H711.665V272.747H721.569ZM731.473 272.747V282.651H721.569V272.747H731.473ZM741.376 272.747V282.651H731.473V272.747H741.376ZM751.28 272.747V282.651H741.376V272.747H751.28ZM761.184 272.747V282.651H751.28V272.747H761.184ZM761.184 282.651V292.555H751.28V282.651H761.184ZM751.28 282.651V292.555H741.376V282.651H751.28ZM741.376 282.651V292.555H731.473V282.651H741.376ZM731.473 282.651V292.555H721.569V282.651H731.473ZM721.569 282.651V292.555H711.665V282.651H721.569ZM711.665 282.651V292.555H701.761V282.651H711.665ZM711.665 292.555V302.459H701.761V292.555H711.665ZM721.569 292.555V302.459H711.665V292.555H721.569ZM731.473 292.555V302.459H721.569V292.555H731.473ZM741.376 292.555V302.459H731.473V292.555H741.376ZM741.376 302.459V312.363H731.473V302.459H741.376ZM751.28 302.459V312.363H741.376V302.459H751.28ZM751.28 292.555V302.459H741.376V292.555H751.28ZM741.376 312.363V322.266H731.473V312.363H741.376ZM731.473 312.363V322.266H721.569V312.363H731.473ZM731.473 302.459V312.363H721.569V302.459H731.473ZM721.569 302.459V312.363H711.665V302.459H721.569ZM721.569 312.363V322.266H711.665V312.363H721.569ZM721.569 322.266V332.17H711.665V322.266H721.569ZM711.665 322.266V332.17H701.761V322.266H711.665ZM701.761 322.266V332.17H691.857V322.266H701.761ZM691.857 322.266V332.17H681.954V322.266H691.857ZM681.954 322.266V332.17H672.05V322.266H681.954ZM672.05 322.266V332.17H662.146V322.266H672.05ZM662.146 322.266V332.17H652.242V322.266H662.146ZM652.242 322.266V332.17H642.338V322.266H652.242ZM662.146 312.363V322.266H652.242V312.363H662.146ZM672.05 312.363V322.266H662.146V312.363H672.05ZM681.954 312.363V322.266H672.05V312.363H681.954ZM691.857 312.363V322.266H681.954V312.363H691.857ZM701.761 312.363V322.266H691.857V312.363H701.761ZM711.665 312.363V322.266H701.761V312.363H711.665ZM711.665 302.459V312.363H701.761V302.459H711.665ZM701.761 302.459V312.363H691.857V302.459H701.761ZM691.857 302.459V312.363H681.954V302.459H691.857ZM681.954 302.459V312.363H672.05V302.459H681.954ZM672.05 302.459V312.363H662.146V302.459H672.05ZM662.146 302.459V312.363H652.242V302.459H662.146ZM652.242 312.363V322.266H642.338V312.363H652.242ZM642.338 312.363V322.266H632.434V312.363H642.338ZM632.434 312.363V322.266H622.531V312.363H632.434ZM632.434 302.459V312.363H622.531V302.459H632.434ZM622.531 302.459V312.363H612.627V302.459H622.531ZM622.531 292.555V302.459H612.627V292.555H622.531ZM632.434 292.555V302.459H622.531V292.555H632.434ZM642.338 292.555V302.459H632.434V292.555H642.338ZM652.242 292.555V302.459H642.338V292.555H652.242ZM662.146 292.555V302.459H652.242V292.555H662.146ZM672.05 292.555V302.459H662.146V292.555H672.05ZM681.954 292.555V302.459H672.05V292.555H681.954ZM691.857 292.555V302.459H681.954V292.555H691.857ZM701.761 292.555V302.459H691.857V292.555H701.761ZM652.242 302.459V312.363H642.338V302.459H652.242ZM642.338 302.459V312.363H632.434V302.459H642.338ZM761.184 213.324V223.228H751.28V213.324H761.184ZM751.28 213.324V223.228H741.376V213.324H751.28ZM741.376 213.324V223.228H731.473V213.324H741.376ZM731.473 213.324V223.228H721.569V213.324H731.473ZM721.569 213.324V223.228H711.665V213.324H721.569ZM761.184 223.228V233.132H751.28V223.228H761.184ZM741.376 223.228V233.132H731.473V223.228H741.376ZM731.473 223.228V233.132H721.569V223.228H731.473ZM711.665 223.228V233.132H701.761V223.228H711.665ZM701.761 223.228V233.132H691.857V223.228H701.761ZM691.857 223.228V233.132H681.954V223.228H691.857ZM681.954 223.228V233.132H672.05V223.228H681.954ZM672.05 223.228V233.132H662.146V223.228H672.05ZM662.146 223.228V233.132H652.242V223.228H662.146ZM721.569 223.228V233.132H711.665V223.228H721.569ZM751.28 223.228V233.132H741.376V223.228H751.28ZM761.184 233.132V243.036H751.28V233.132H761.184ZM751.28 233.132V243.036H741.376V233.132H751.28ZM741.376 233.132V243.036H731.473V233.132H741.376ZM731.473 233.132V243.036H721.569V233.132H731.473ZM721.569 233.132V243.036H711.665V233.132H721.569ZM711.665 233.132V243.036H701.761V233.132H711.665ZM701.761 233.132V243.036H691.857V233.132H701.761ZM691.857 233.132V243.036H681.954V233.132H691.857ZM681.954 233.132V243.036H672.05V233.132H681.954ZM672.05 233.132V243.036H662.146V233.132H672.05ZM662.146 233.132V243.036H652.242V233.132H662.146ZM662.146 243.036V252.94H652.242V243.036H662.146ZM672.05 243.036V252.94H662.146V243.036H672.05ZM681.954 243.036V252.94H672.05V243.036H681.954ZM701.761 243.036V252.94H691.857V243.036H701.761ZM711.665 243.036V252.94H701.761V243.036H711.665ZM721.569 243.036V252.94H711.665V243.036H721.569ZM731.473 243.036V252.94H721.569V243.036H731.473ZM741.376 243.036V252.94H731.473V243.036H741.376ZM751.28 243.036V252.94H741.376V243.036H751.28ZM761.184 243.036V252.94H751.28V243.036H761.184ZM691.857 243.036V252.94H681.954V243.036H691.857ZM800.974 322.266V332.17H791.07V322.266H800.974ZM800.974 312.363V322.266H791.07V312.363H800.974ZM800.974 302.459V312.363H791.07V302.459H800.974ZM800.974 292.555V302.459H791.07V292.555H800.974ZM800.974 282.651V292.555H791.07V282.651H800.974ZM800.974 272.747V282.651H791.07V272.747H800.974ZM800.974 262.843V272.747H791.07V262.843H800.974ZM800.974 252.94V262.843H791.07V252.94H800.974ZM800.974 243.036V252.94H791.07V243.036H800.974ZM800.974 233.132V243.036H791.07V233.132H800.974ZM800.974 223.228V233.132H791.07V223.228H800.974ZM800.974 213.324V223.228H791.07V213.324H800.974ZM800.974 203.42V213.324H791.07V203.42H800.974ZM800.974 193.517V203.42H791.07V193.517H800.974ZM800.974 183.613V193.517H791.07V183.613H800.974ZM810.877 183.613V193.517H800.974V183.613H810.877ZM810.877 193.517V203.42H800.974V193.517H810.877ZM810.877 203.42V213.324H800.974V203.42H810.877ZM810.877 213.324V223.228H800.974V213.324H810.877ZM810.877 223.228V233.132H800.974V223.228H810.877ZM810.877 233.132V243.036H800.974V233.132H810.877ZM810.877 243.036V252.94H800.974V243.036H810.877ZM820.781 252.94V262.843H810.877V252.94H820.781ZM820.781 262.843V272.747H810.877V262.843H820.781ZM820.781 272.747V282.651H810.877V272.747H820.781ZM820.781 282.651V292.555H810.877V282.651H820.781ZM820.781 292.555V302.459H810.877V292.555H820.781ZM820.781 302.459V312.363H810.877V302.459H820.781ZM820.781 312.363V322.266H810.877V312.363H820.781ZM820.781 322.266V332.17H810.877V322.266H820.781ZM830.685 322.266V332.17H820.781V322.266H830.685ZM840.589 322.266V332.17H830.685V322.266H840.589ZM840.589 312.363V322.266H830.685V312.363H840.589ZM840.589 302.459V312.363H830.685V302.459H840.589ZM840.589 292.555V302.459H830.685V292.555H840.589ZM840.589 282.651V292.555H830.685V282.651H840.589ZM840.589 272.747V282.651H830.685V272.747H840.589ZM840.589 262.843V272.747H830.685V262.843H840.589ZM840.589 252.94V262.843H830.685V252.94H840.589ZM830.685 252.94V262.843H820.781V252.94H830.685ZM830.685 243.036V252.94H820.781V243.036H830.685ZM830.685 262.843V272.747H820.781V262.843H830.685ZM830.685 272.747V282.651H820.781V272.747H830.685ZM830.685 282.651V292.555H820.781V282.651H830.685ZM830.685 292.555V302.459H820.781V292.555H830.685ZM830.685 302.459V312.363H820.781V302.459H830.685ZM830.685 312.363V322.266H820.781V312.363H830.685ZM810.877 322.266V332.17H800.974V322.266H810.877ZM810.877 312.363V322.266H800.974V312.363H810.877ZM810.877 302.459V312.363H800.974V302.459H810.877ZM810.877 292.555V302.459H800.974V292.555H810.877ZM810.877 282.651V292.555H800.974V282.651H810.877ZM810.877 272.747V282.651H800.974V272.747H810.877ZM810.877 262.843V272.747H800.974V262.843H810.877ZM810.877 252.94V262.843H800.974V252.94H810.877ZM800.974 84.5744V94.4783H791.07V84.5744H800.974ZM800.974 94.4783V104.382H791.07V94.4783H800.974ZM800.974 104.382V114.286H791.07V104.382H800.974ZM800.974 114.286V124.19H791.07V114.286H800.974ZM800.974 124.19V134.094H791.07V124.19H800.974ZM800.974 134.094V143.997H791.07V134.094H800.974ZM800.974 143.997V153.901H791.07V143.997H800.974ZM800.974 153.901V163.805H791.07V153.901H800.974ZM800.974 163.805V173.709H791.07V163.805H800.974ZM800.974 173.709V183.613H791.07V173.709H800.974ZM830.685 84.5744V94.4783H820.781V84.5744H830.685ZM830.685 94.4783V104.382H820.781V94.4783H830.685ZM830.685 104.382V114.286H820.781V104.382H830.685ZM830.685 114.286V124.19H820.781V114.286H830.685ZM830.685 124.19V134.094H820.781V124.19H830.685ZM830.685 134.094V143.997H820.781V134.094H830.685ZM830.685 153.901V163.805H820.781V153.901H830.685ZM830.685 163.805V173.709H820.781V163.805H830.685ZM830.685 173.709V183.613H820.781V173.709H830.685ZM830.685 183.613V193.517H820.781V183.613H830.685ZM830.685 193.517V203.42H820.781V193.517H830.685ZM830.685 203.42V213.324H820.781V203.42H830.685ZM830.685 213.324V223.228H820.781V213.324H830.685ZM840.589 223.228V233.132H830.685V223.228H840.589ZM840.589 233.132V243.036H830.685V233.132H840.589ZM840.589 243.036V252.94H830.685V243.036H840.589ZM840.589 213.324V223.228H830.685V213.324H840.589ZM840.589 203.42V213.324H830.685V203.42H840.589ZM840.589 193.517V203.42H830.685V193.517H840.589ZM840.589 183.613V193.517H830.685V183.613H840.589ZM840.589 173.709V183.613H830.685V173.709H840.589ZM840.589 163.805V173.709H830.685V163.805H840.589ZM840.589 153.901V163.805H830.685V153.901H840.589ZM840.589 143.997V153.901H830.685V143.997H840.589ZM840.589 134.094V143.997H830.685V134.094H840.589ZM840.589 124.19V134.094H830.685V124.19H840.589ZM830.685 143.997V153.901H820.781V143.997H830.685ZM840.589 114.286V124.19H830.685V114.286H840.589ZM840.589 104.382V114.286H830.685V104.382H840.589ZM840.589 94.4783V104.382H830.685V94.4783H840.589ZM840.589 84.5744V94.4783H830.685V84.5744H840.589ZM820.781 84.5744V94.4783H810.877V84.5744H820.781ZM810.877 84.5744V94.4783H800.974V84.5744H810.877ZM810.877 94.4783V104.382H800.974V94.4783H810.877ZM820.781 94.4783V104.382H810.877V94.4783H820.781ZM820.781 104.382V114.286H810.877V104.382H820.781ZM820.781 114.286V124.19H810.877V114.286H820.781ZM820.781 124.19V134.094H810.877V124.19H820.781ZM820.781 134.094V143.997H810.877V134.094H820.781ZM820.781 143.997V153.901H810.877V143.997H820.781ZM820.781 153.901V163.805H810.877V153.901H820.781ZM810.877 163.805V173.709H800.974V163.805H810.877ZM810.877 173.709V183.613H800.974V173.709H810.877ZM810.877 153.901V163.805H800.974V153.901H810.877ZM810.877 143.997V153.901H800.974V143.997H810.877ZM810.877 134.094V143.997H800.974V134.094H810.877ZM810.877 124.19V134.094H800.974V124.19H810.877ZM810.877 114.286V124.19H800.974V114.286H810.877ZM810.877 104.382V114.286H800.974V104.382H810.877ZM820.781 163.805V173.709H810.877V163.805H820.781ZM820.781 173.709V183.613H810.877V173.709H820.781ZM820.781 183.613V193.517H810.877V183.613H820.781ZM820.781 193.517V203.42H810.877V193.517H820.781ZM820.781 203.42V213.324H810.877V203.42H820.781ZM820.781 213.324V223.228H810.877V213.324H820.781ZM820.781 223.228V233.132H810.877V223.228H820.781ZM820.781 233.132V243.036H810.877V233.132H820.781ZM820.781 243.036V252.94H810.877V243.036H820.781ZM830.685 233.132V243.036H820.781V233.132H830.685ZM830.685 223.228V233.132H820.781V223.228H830.685ZM1018.94 153.901V143.997H1028.85V153.901H1018.94ZM1018.94 163.805V153.901H1028.85V163.805H1018.94ZM1018.94 173.709V163.805H1028.85V173.709H1018.94ZM1018.94 183.613V173.709H1028.85V183.613H1018.94ZM1018.94 193.517V183.613H1028.85V193.517H1018.94ZM1018.94 203.42V193.517H1028.85V203.42H1018.94ZM1018.94 213.324V203.42H1028.85V213.324H1018.94ZM1018.94 223.228V213.324H1028.85V223.228H1018.94ZM1018.94 233.132V223.228H1028.85V233.132H1018.94ZM1018.94 243.036V233.132H1028.85V243.036H1018.94ZM1018.94 252.94V243.036H1028.85V252.94H1018.94ZM1018.94 262.843V252.94H1028.85V262.843H1018.94ZM1018.94 272.747V262.843H1028.85V272.747H1018.94ZM1018.94 282.651V272.747H1028.85V282.651H1018.94ZM1018.94 292.555V282.651H1028.85V292.555H1018.94ZM1009.04 292.555V282.651H1018.94V292.555H1009.04ZM1009.04 282.651V272.747H1018.94V282.651H1009.04ZM1009.04 272.747V262.843H1018.94V272.747H1009.04ZM1009.04 262.843V252.94H1018.94V262.843H1009.04ZM1009.04 252.94V243.036H1018.94V252.94H1009.04ZM1009.04 243.036V233.132H1018.94V243.036H1009.04ZM1009.04 233.132V223.228H1018.94V233.132H1009.04ZM999.137 223.228V213.324H1009.04V223.228H999.137ZM999.137 213.324V203.42H1009.04V213.324H999.137ZM999.137 203.42V193.517H1009.04V203.42H999.137ZM999.137 193.517V183.613H1009.04V193.517H999.137ZM999.137 183.613V173.709H1009.04V183.613H999.137ZM999.137 173.709V163.805H1009.04V173.709H999.137ZM999.137 163.805V153.901H1009.04V163.805H999.137ZM999.137 153.901V143.997H1009.04V153.901H999.137ZM989.233 153.901V143.997H999.137V153.901H989.233ZM979.33 153.901V143.997H989.233V153.901H979.33ZM979.33 163.805V153.901H989.233V163.805H979.33ZM979.33 173.709V163.805H989.233V173.709H979.33ZM979.33 183.613V173.709H989.233V183.613H979.33ZM979.33 193.517V183.613H989.233V193.517H979.33ZM979.33 203.42V193.517H989.233V203.42H979.33ZM979.33 213.324V203.42H989.233V213.324H979.33ZM979.33 223.228V213.324H989.233V223.228H979.33ZM989.233 223.228V213.324H999.137V223.228H989.233ZM989.233 233.132V223.228H999.137V233.132H989.233ZM989.233 213.324V203.42H999.137V213.324H989.233ZM989.233 203.42V193.517H999.137V203.42H989.233ZM989.233 193.517V183.613H999.137V193.517H989.233ZM989.233 183.613V173.709H999.137V183.613H989.233ZM989.233 173.709V163.805H999.137V173.709H989.233ZM989.233 163.805V153.901H999.137V163.805H989.233ZM1009.04 153.901V143.997H1018.94V153.901H1009.04ZM1009.04 163.805V153.901H1018.94V163.805H1009.04ZM1009.04 173.709V163.805H1018.94V173.709H1009.04ZM1009.04 183.613V173.709H1018.94V183.613H1009.04ZM1009.04 193.517V183.613H1018.94V193.517H1009.04ZM1009.04 203.42V193.517H1018.94V203.42H1009.04ZM1009.04 213.324V203.42H1018.94V213.324H1009.04ZM1009.04 223.228V213.324H1018.94V223.228H1009.04ZM1018.94 332.17V322.266H1028.85V332.17H1018.94ZM1018.94 322.266V312.363H1028.85V322.266H1018.94ZM1018.94 312.363V302.459H1028.85V312.363H1018.94ZM1018.94 302.459V292.555H1028.85V302.459H1018.94ZM989.233 322.266V312.363H999.137V322.266H989.233ZM989.233 312.363V302.459H999.137V312.363H989.233ZM989.233 302.459V292.555H999.137V302.459H989.233ZM989.233 292.555V282.651H999.137V292.555H989.233ZM989.233 282.651V272.747H999.137V282.651H989.233ZM989.233 272.747V262.843H999.137V272.747H989.233ZM989.233 262.843V252.94H999.137V262.843H989.233ZM979.33 252.94V243.036H989.233V252.94H979.33ZM979.33 243.036V233.132H989.233V243.036H979.33ZM979.33 233.132V223.228H989.233V233.132H979.33ZM979.33 262.843V252.94H989.233V262.843H979.33ZM979.33 272.747V262.843H989.233V272.747H979.33ZM979.33 282.651V272.747H989.233V282.651H979.33ZM979.33 292.555V282.651H989.233V292.555H979.33ZM979.33 302.459V292.555H989.233V302.459H979.33ZM979.33 312.363V302.459H989.233V312.363H979.33ZM979.33 322.266V312.363H989.233V322.266H979.33ZM979.33 332.17V322.266H989.233V332.17H979.33ZM989.233 332.17V322.266H999.137V332.17H989.233ZM999.137 332.17V322.266H1009.04V332.17H999.137ZM999.137 322.266V312.363H1009.04V322.266H999.137ZM1009.04 312.363V302.459H1018.94V312.363H1009.04ZM1009.04 302.459V292.555H1018.94V302.459H1009.04ZM1009.04 322.266V312.363H1018.94V322.266H1009.04ZM1009.04 332.17V322.266H1018.94V332.17H1009.04ZM999.137 312.363V302.459H1009.04V312.363H999.137ZM999.137 302.459V292.555H1009.04V302.459H999.137ZM999.137 292.555V282.651H1009.04V292.555H999.137ZM999.137 282.651V272.747H1009.04V282.651H999.137ZM999.137 272.747V262.843H1009.04V272.747H999.137ZM999.137 262.843V252.94H1009.04V262.843H999.137ZM999.137 252.94V243.036H1009.04V252.94H999.137ZM999.137 243.036V233.132H1009.04V243.036H999.137ZM999.137 233.132V223.228H1009.04V233.132H999.137ZM989.233 243.036V233.132H999.137V243.036H989.233ZM989.233 252.94V243.036H999.137V252.94H989.233ZM910.003 153.901V143.997H919.907V153.901H910.003ZM900.099 153.901V143.997H910.003V153.901H900.099ZM890.195 153.901V143.997H900.099V153.901H890.195ZM880.291 153.901V143.997H890.195V153.901H880.291ZM870.387 163.805V153.901H880.291V163.805H870.387ZM870.387 173.709V163.805H880.291V173.709H870.387ZM870.387 153.901V143.997H880.291V153.901H870.387ZM880.291 163.805V153.901H890.195V163.805H880.291ZM890.195 163.805V153.901H900.099V163.805H890.195ZM900.099 163.805V153.901H910.003V163.805H900.099ZM910.003 163.805V153.901H919.907V163.805H910.003ZM910.003 173.709V163.805H919.907V173.709H910.003ZM910.003 183.613V173.709H919.907V183.613H910.003ZM900.099 183.613V173.709H910.003V183.613H900.099ZM890.195 183.613V173.709H900.099V183.613H890.195ZM880.291 183.613V173.709H890.195V183.613H880.291ZM870.387 183.613V173.709H880.291V183.613H870.387ZM880.291 173.709V163.805H890.195V173.709H880.291ZM890.195 173.709V163.805H900.099V173.709H890.195ZM900.099 173.709V163.805H910.003V173.709H900.099ZM870.387 292.555V282.651H880.291V292.555H870.387ZM880.291 292.555V282.651H890.195V292.555H880.291ZM900.099 292.555V282.651H910.003V292.555H900.099ZM900.099 282.651V272.747H910.003V282.651H900.099ZM900.099 272.747V262.843H910.003V272.747H900.099ZM910.003 262.843V252.94H919.907V262.843H910.003ZM910.003 252.94V243.036H919.907V252.94H910.003ZM910.003 243.036V233.132H919.907V243.036H910.003ZM910.003 233.132V223.228H919.907V233.132H910.003ZM910.003 223.228V213.324H919.907V223.228H910.003ZM910.003 213.324V203.42H919.907V213.324H910.003ZM910.003 203.42V193.517H919.907V203.42H910.003ZM910.003 193.517V183.613H919.907V193.517H910.003ZM900.099 193.517V183.613H910.003V193.517H900.099ZM890.195 193.517V183.613H900.099V193.517H890.195ZM880.291 193.517V183.613H890.195V193.517H880.291ZM870.387 193.517V183.613H880.291V193.517H870.387ZM870.387 203.42V193.517H880.291V203.42H870.387ZM870.387 223.228V213.324H880.291V223.228H870.387ZM870.387 233.132V223.228H880.291V233.132H870.387ZM870.387 243.036V233.132H880.291V243.036H870.387ZM870.387 252.94V243.036H880.291V252.94H870.387ZM870.387 262.843V252.94H880.291V262.843H870.387ZM870.387 272.747V262.843H880.291V272.747H870.387ZM870.387 282.651V272.747H880.291V282.651H870.387ZM880.291 243.036V233.132H890.195V243.036H880.291ZM880.291 223.228V213.324H890.195V223.228H880.291ZM880.291 213.324V203.42H890.195V213.324H880.291ZM880.291 203.42V193.517H890.195V203.42H880.291ZM870.387 213.324V203.42H880.291V213.324H870.387ZM880.291 262.843V252.94H890.195V262.843H880.291ZM890.195 262.843V252.94H900.099V262.843H890.195ZM900.099 262.843V252.94H910.003V262.843H900.099ZM900.099 252.94V243.036H910.003V252.94H900.099ZM900.099 243.036V233.132H910.003V243.036H900.099ZM900.099 233.132V223.228H910.003V233.132H900.099ZM900.099 223.228V213.324H910.003V223.228H900.099ZM900.099 213.324V203.42H910.003V213.324H900.099ZM900.099 203.42V193.517H910.003V203.42H900.099ZM890.195 203.42V193.517H900.099V203.42H890.195ZM890.195 213.324V203.42H900.099V213.324H890.195ZM890.195 223.228V213.324H900.099V223.228H890.195ZM890.195 233.132V223.228H900.099V233.132H890.195ZM890.195 243.036V233.132H900.099V243.036H890.195ZM890.195 252.94V243.036H900.099V252.94H890.195ZM880.291 252.94V243.036H890.195V252.94H880.291ZM880.291 233.132V223.228H890.195V233.132H880.291ZM880.291 272.747V262.843H890.195V272.747H880.291ZM880.291 282.651V272.747H890.195V282.651H880.291ZM890.195 282.651V272.747H900.099V282.651H890.195ZM890.195 272.747V262.843H900.099V272.747H890.195ZM910.003 272.747V262.843H919.907V272.747H910.003ZM910.003 282.651V272.747H919.907V282.651H910.003ZM910.003 292.555V282.651H919.907V292.555H910.003ZM890.195 292.555V282.651H900.099V292.555H890.195ZM910.003 332.17V322.266H919.907V332.17H910.003ZM910.003 322.266V312.363H919.907V322.266H910.003ZM900.099 322.266V312.363H910.003V322.266H900.099ZM890.195 322.266V312.363H900.099V322.266H890.195ZM890.195 312.363V302.459H900.099V312.363H890.195ZM880.291 312.363V302.459H890.195V312.363H880.291ZM880.291 302.459V292.555H890.195V302.459H880.291ZM890.195 302.459V292.555H900.099V302.459H890.195ZM900.099 302.459V292.555H910.003V302.459H900.099ZM900.099 312.363V302.459H910.003V312.363H900.099ZM910.003 312.363V302.459H919.907V312.363H910.003ZM919.907 312.363V302.459H929.81V312.363H919.907ZM919.907 302.459V292.555H929.81V302.459H919.907ZM910.003 302.459V292.555H919.907V302.459H910.003ZM919.907 292.555V282.651H929.81V292.555H919.907ZM929.81 302.459V292.555H939.714V302.459H929.81ZM929.81 312.363V302.459H939.714V312.363H929.81ZM929.81 322.266V312.363H939.714V322.266H929.81ZM929.81 332.17V322.266H939.714V332.17H929.81ZM919.907 332.17V322.266H929.81V332.17H919.907ZM919.907 322.266V312.363H929.81V322.266H919.907ZM939.714 332.17V322.266H949.618V332.17H939.714ZM939.714 322.266V312.363H949.618V322.266H939.714ZM939.714 312.363V302.459H949.618V312.363H939.714ZM939.714 302.459V292.555H949.618V302.459H939.714ZM949.618 332.17V322.266H959.522V332.17H949.618ZM949.618 322.266V312.363H959.522V322.266H949.618ZM959.522 322.266V312.363H969.426V322.266H959.522ZM959.522 312.363V302.459H969.426V312.363H959.522ZM969.426 312.363V302.459H979.33V312.363H969.426ZM969.426 302.459V292.555H979.33V302.459H969.426ZM959.522 302.459V292.555H969.426V302.459H959.522ZM949.618 302.459V292.555H959.522V302.459H949.618ZM949.618 312.363V302.459H959.522V312.363H949.618ZM959.522 332.17V322.266H969.426V332.17H959.522ZM969.426 322.266V312.363H979.33V322.266H969.426ZM979.33 282.651V292.555H969.426V282.651H979.33ZM1078.55 322.266V332.17H1068.65V322.266H1078.55ZM1078.55 312.363V322.266H1068.65V312.363H1078.55ZM1078.55 302.459V312.363H1068.65V302.459H1078.55ZM1078.55 292.555V302.459H1068.65V292.555H1078.55ZM1078.55 282.651V292.555H1068.65V282.651H1078.55ZM1078.55 272.747V282.651H1068.65V272.747H1078.55ZM1078.55 262.843V272.747H1068.65V262.843H1078.55ZM1078.55 252.94V262.843H1068.65V252.94H1078.55ZM1078.55 243.036V252.94H1068.65V243.036H1078.55ZM1078.55 233.132V243.036H1068.65V233.132H1078.55ZM1078.55 223.228V233.132H1068.65V223.228H1078.55ZM1078.55 213.324V223.228H1068.65V213.324H1078.55ZM1078.55 203.42V213.324H1068.65V203.42H1078.55ZM1078.55 193.517V203.42H1068.65V193.517H1078.55ZM1078.55 183.613V193.517H1068.65V183.613H1078.55ZM1088.46 183.613V193.517H1078.55V183.613H1088.46ZM1088.46 193.517V203.42H1078.55V193.517H1088.46ZM1088.46 203.42V213.324H1078.55V203.42H1088.46ZM1088.46 213.324V223.228H1078.55V213.324H1088.46ZM1088.46 223.228V233.132H1078.55V223.228H1088.46ZM1088.46 233.132V243.036H1078.55V233.132H1088.46ZM1088.46 243.036V252.94H1078.55V243.036H1088.46ZM1098.36 252.94V262.843H1088.46V252.94H1098.36ZM1098.36 262.843V272.747H1088.46V262.843H1098.36ZM1098.36 272.747V282.651H1088.46V272.747H1098.36ZM1098.36 282.651V292.555H1088.46V282.651H1098.36ZM1098.36 292.555V302.459H1088.46V292.555H1098.36ZM1098.36 302.459V312.363H1088.46V302.459H1098.36ZM1098.36 312.363V322.266H1088.46V312.363H1098.36ZM1098.36 322.266V332.17H1088.46V322.266H1098.36ZM1108.26 322.266V332.17H1098.36V322.266H1108.26ZM1118.17 322.266V332.17H1108.26V322.266H1118.17ZM1118.17 312.363V322.266H1108.26V312.363H1118.17ZM1118.17 302.459V312.363H1108.26V302.459H1118.17ZM1118.17 292.555V302.459H1108.26V292.555H1118.17ZM1118.17 282.651V292.555H1108.26V282.651H1118.17ZM1118.17 272.747V282.651H1108.26V272.747H1118.17ZM1118.17 262.843V272.747H1108.26V262.843H1118.17ZM1118.17 252.94V262.843H1108.26V252.94H1118.17ZM1108.26 252.94V262.843H1098.36V252.94H1108.26ZM1108.26 243.036V252.94H1098.36V243.036H1108.26ZM1108.26 262.843V272.747H1098.36V262.843H1108.26ZM1108.26 272.747V282.651H1098.36V272.747H1108.26ZM1108.26 282.651V292.555H1098.36V282.651H1108.26ZM1108.26 292.555V302.459H1098.36V292.555H1108.26ZM1108.26 302.459V312.363H1098.36V302.459H1108.26ZM1108.26 312.363V322.266H1098.36V312.363H1108.26ZM1088.46 322.266V332.17H1078.55V322.266H1088.46ZM1088.46 312.363V322.266H1078.55V312.363H1088.46ZM1088.46 302.459V312.363H1078.55V302.459H1088.46ZM1088.46 292.555V302.459H1078.55V292.555H1088.46ZM1088.46 282.651V292.555H1078.55V282.651H1088.46ZM1088.46 272.747V282.651H1078.55V272.747H1088.46ZM1088.46 262.843V272.747H1078.55V262.843H1088.46ZM1088.46 252.94V262.843H1078.55V252.94H1088.46ZM1078.55 143.997V153.901H1068.65V143.997H1078.55ZM1078.55 153.901V163.805H1068.65V153.901H1078.55ZM1078.55 163.805V173.709H1068.65V163.805H1078.55ZM1078.55 173.709V183.613H1068.65V173.709H1078.55ZM1108.26 153.901V163.805H1098.36V153.901H1108.26ZM1108.26 163.805V173.709H1098.36V163.805H1108.26ZM1108.26 173.709V183.613H1098.36V173.709H1108.26ZM1108.26 183.613V193.517H1098.36V183.613H1108.26ZM1108.26 193.517V203.42H1098.36V193.517H1108.26ZM1108.26 203.42V213.324H1098.36V203.42H1108.26ZM1108.26 213.324V223.228H1098.36V213.324H1108.26ZM1118.17 223.228V233.132H1108.26V223.228H1118.17ZM1118.17 233.132V243.036H1108.26V233.132H1118.17ZM1118.17 243.036V252.94H1108.26V243.036H1118.17ZM1118.17 213.324V223.228H1108.26V213.324H1118.17ZM1118.17 203.42V213.324H1108.26V203.42H1118.17ZM1118.17 193.517V203.42H1108.26V193.517H1118.17ZM1118.17 183.613V193.517H1108.26V183.613H1118.17ZM1118.17 173.709V183.613H1108.26V173.709H1118.17ZM1118.17 163.805V173.709H1108.26V163.805H1118.17ZM1118.17 153.901V163.805H1108.26V153.901H1118.17ZM1118.17 143.997V153.901H1108.26V143.997H1118.17ZM1108.26 143.997V153.901H1098.36V143.997H1108.26ZM1098.36 143.997V153.901H1088.46V143.997H1098.36ZM1098.36 153.901V163.805H1088.46V153.901H1098.36ZM1088.46 163.805V173.709H1078.55V163.805H1088.46ZM1088.46 173.709V183.613H1078.55V173.709H1088.46ZM1088.46 153.901V163.805H1078.55V153.901H1088.46ZM1088.46 143.997V153.901H1078.55V143.997H1088.46ZM1098.36 163.805V173.709H1088.46V163.805H1098.36ZM1098.36 173.709V183.613H1088.46V173.709H1098.36ZM1098.36 183.613V193.517H1088.46V183.613H1098.36ZM1098.36 193.517V203.42H1088.46V193.517H1098.36ZM1098.36 203.42V213.324H1088.46V203.42H1098.36ZM1098.36 213.324V223.228H1088.46V213.324H1098.36ZM1098.36 223.228V233.132H1088.46V223.228H1098.36ZM1098.36 233.132V243.036H1088.46V233.132H1098.36ZM1098.36 243.036V252.94H1088.46V243.036H1098.36ZM1108.26 233.132V243.036H1098.36V233.132H1108.26ZM1108.26 223.228V233.132H1098.36V223.228H1108.26ZM1167.69 322.266V332.17H1157.78V322.266H1167.69ZM1177.59 322.266V332.17H1167.69V322.266H1177.59ZM1187.49 322.266V332.17H1177.59V322.266H1187.49ZM1197.4 322.266V332.17H1187.49V322.266H1197.4ZM1207.3 312.363V322.266H1197.4V312.363H1207.3ZM1207.3 302.459V312.363H1197.4V302.459H1207.3ZM1207.3 322.266V332.17H1197.4V322.266H1207.3ZM1197.4 312.363V322.266H1187.49V312.363H1197.4ZM1187.49 312.363V322.266H1177.59V312.363H1187.49ZM1177.59 312.363V322.266H1167.69V312.363H1177.59ZM1167.69 312.363V322.266H1157.78V312.363H1167.69ZM1167.69 302.459V312.363H1157.78V302.459H1167.69ZM1167.69 292.555V302.459H1157.78V292.555H1167.69ZM1177.59 292.555V302.459H1167.69V292.555H1177.59ZM1187.49 292.555V302.459H1177.59V292.555H1187.49ZM1197.4 292.555V302.459H1187.49V292.555H1197.4ZM1207.3 292.555V302.459H1197.4V292.555H1207.3ZM1197.4 302.459V312.363H1187.49V302.459H1197.4ZM1187.49 302.459V312.363H1177.59V302.459H1187.49ZM1177.59 302.459V312.363H1167.69V302.459H1177.59ZM1197.4 183.613V193.517H1187.49V183.613H1197.4ZM1177.59 183.613V193.517H1167.69V183.613H1177.59ZM1177.59 193.517V203.42H1167.69V193.517H1177.59ZM1177.59 203.42V213.324H1167.69V203.42H1177.59ZM1167.69 213.324V223.228H1157.78V213.324H1167.69ZM1167.69 223.228V233.132H1157.78V223.228H1167.69ZM1167.69 233.132V243.036H1157.78V233.132H1167.69ZM1167.69 243.036V252.94H1157.78V243.036H1167.69ZM1167.69 252.94V262.843H1157.78V252.94H1167.69ZM1167.69 262.843V272.747H1157.78V262.843H1167.69ZM1167.69 272.747V282.651H1157.78V272.747H1167.69ZM1167.69 282.651V292.555H1157.78V282.651H1167.69ZM1177.59 282.651V292.555H1167.69V282.651H1177.59ZM1187.49 282.651V292.555H1177.59V282.651H1187.49ZM1197.4 282.651V292.555H1187.49V282.651H1197.4ZM1207.3 282.651V292.555H1197.4V282.651H1207.3ZM1207.3 272.747V282.651H1197.4V272.747H1207.3ZM1207.3 252.94V262.843H1197.4V252.94H1207.3ZM1207.3 243.036V252.94H1197.4V243.036H1207.3ZM1207.3 233.132V243.036H1197.4V233.132H1207.3ZM1207.3 223.228V233.132H1197.4V223.228H1207.3ZM1207.3 213.324V223.228H1197.4V213.324H1207.3ZM1207.3 203.42V213.324H1197.4V203.42H1207.3ZM1197.4 233.132V243.036H1187.49V233.132H1197.4ZM1197.4 252.94V262.843H1187.49V252.94H1197.4ZM1197.4 262.843V272.747H1187.49V262.843H1197.4ZM1197.4 272.747V282.651H1187.49V272.747H1197.4ZM1207.3 262.843V272.747H1197.4V262.843H1207.3ZM1197.4 213.324V223.228H1187.49V213.324H1197.4ZM1187.49 213.324V223.228H1177.59V213.324H1187.49ZM1177.59 213.324V223.228H1167.69V213.324H1177.59ZM1177.59 223.228V233.132H1167.69V223.228H1177.59ZM1177.59 233.132V243.036H1167.69V233.132H1177.59ZM1177.59 243.036V252.94H1167.69V243.036H1177.59ZM1177.59 252.94V262.843H1167.69V252.94H1177.59ZM1177.59 262.843V272.747H1167.69V262.843H1177.59ZM1177.59 272.747V282.651H1167.69V272.747H1177.59ZM1187.49 272.747V282.651H1177.59V272.747H1187.49ZM1187.49 262.843V272.747H1177.59V262.843H1187.49ZM1187.49 252.94V262.843H1177.59V252.94H1187.49ZM1187.49 243.036V252.94H1177.59V243.036H1187.49ZM1187.49 233.132V243.036H1177.59V233.132H1187.49ZM1187.49 223.228V233.132H1177.59V223.228H1187.49ZM1197.4 223.228V233.132H1187.49V223.228H1197.4ZM1197.4 243.036V252.94H1187.49V243.036H1197.4ZM1197.4 203.42V213.324H1187.49V203.42H1197.4ZM1197.4 193.517V203.42H1187.49V193.517H1197.4ZM1187.49 193.517V203.42H1177.59V193.517H1187.49ZM1187.49 203.42V213.324H1177.59V203.42H1187.49ZM1167.69 203.42V213.324H1157.78V203.42H1167.69ZM1167.69 193.517V203.42H1157.78V193.517H1167.69ZM1167.69 183.613V193.517H1157.78V183.613H1167.69ZM1187.49 183.613V193.517H1177.59V183.613H1187.49ZM1167.69 143.997V153.901H1157.78V143.997H1167.69ZM1167.69 153.901V163.805H1157.78V153.901H1167.69ZM1177.59 153.901V163.805H1167.69V153.901H1177.59ZM1187.49 153.901V163.805H1177.59V153.901H1187.49ZM1187.49 163.805V173.709H1177.59V163.805H1187.49ZM1197.4 163.805V173.709H1187.49V163.805H1197.4ZM1197.4 173.709V183.613H1187.49V173.709H1197.4ZM1187.49 173.709V183.613H1177.59V173.709H1187.49ZM1177.59 173.709V183.613H1167.69V173.709H1177.59ZM1177.59 163.805V173.709H1167.69V163.805H1177.59ZM1167.69 163.805V173.709H1157.78V163.805H1167.69ZM1157.78 163.805V173.709H1147.88V163.805H1157.78ZM1157.78 173.709V183.613H1147.88V173.709H1157.78ZM1167.69 173.709V183.613H1157.78V173.709H1167.69ZM1157.78 183.613V193.517H1147.88V183.613H1157.78ZM1157.78 143.997V153.901H1147.88V143.997H1157.78ZM1157.78 153.901V163.805H1147.88V153.901H1157.78ZM1147.88 143.997V153.901H1137.97V143.997H1147.88ZM1147.88 153.901V163.805H1137.97V153.901H1147.88ZM1147.88 163.805V173.709H1137.97V163.805H1147.88ZM1137.97 153.901V163.805H1128.07V153.901H1137.97ZM1128.07 163.805V173.709H1118.17V163.805H1128.07ZM1128.07 173.709V183.613H1118.17V173.709H1128.07ZM1137.97 173.709V183.613H1128.07V173.709H1137.97ZM1137.97 163.805V173.709H1128.07V163.805H1137.97ZM1128.07 183.613V193.517H1118.17V183.613H1128.07ZM1256.82 322.266V332.17H1246.92V322.266H1256.82ZM1266.72 322.266V332.17H1256.82V322.266H1266.72ZM1276.63 322.266V332.17H1266.72V322.266H1276.63ZM1286.53 322.266V332.17H1276.63V322.266H1286.53ZM1296.44 312.363V322.266H1286.53V312.363H1296.44ZM1296.44 302.459V312.363H1286.53V302.459H1296.44ZM1296.44 322.266V332.17H1286.53V322.266H1296.44ZM1286.53 312.363V322.266H1276.63V312.363H1286.53ZM1276.63 312.363V322.266H1266.72V312.363H1276.63ZM1266.72 312.363V322.266H1256.82V312.363H1266.72ZM1256.82 312.363V322.266H1246.92V312.363H1256.82ZM1256.82 302.459V312.363H1246.92V302.459H1256.82ZM1256.82 292.555V302.459H1246.92V292.555H1256.82ZM1266.72 292.555V302.459H1256.82V292.555H1266.72ZM1276.63 292.555V302.459H1266.72V292.555H1276.63ZM1286.53 292.555V302.459H1276.63V292.555H1286.53ZM1296.44 292.555V302.459H1286.53V292.555H1296.44ZM1286.53 302.459V312.363H1276.63V302.459H1286.53ZM1276.63 302.459V312.363H1266.72V302.459H1276.63ZM1266.72 302.459V312.363H1256.82V302.459H1266.72ZM1296.44 183.613V193.517H1286.53V183.613H1296.44ZM1286.53 183.613V193.517H1276.63V183.613H1286.53ZM1266.72 183.613V193.517H1256.82V183.613H1266.72ZM1266.72 193.517V203.42H1256.82V193.517H1266.72ZM1266.72 203.42V213.324H1256.82V203.42H1266.72ZM1256.82 213.324V223.228H1246.92V213.324H1256.82ZM1256.82 223.228V233.132H1246.92V223.228H1256.82ZM1256.82 233.132V243.036H1246.92V233.132H1256.82ZM1256.82 243.036V252.94H1246.92V243.036H1256.82ZM1256.82 252.94V262.843H1246.92V252.94H1256.82ZM1256.82 262.843V272.747H1246.92V262.843H1256.82ZM1256.82 272.747V282.651H1246.92V272.747H1256.82ZM1256.82 282.651V292.555H1246.92V282.651H1256.82ZM1266.72 282.651V292.555H1256.82V282.651H1266.72ZM1276.63 282.651V292.555H1266.72V282.651H1276.63ZM1286.53 282.651V292.555H1276.63V282.651H1286.53ZM1296.44 282.651V292.555H1286.53V282.651H1296.44ZM1296.44 272.747V282.651H1286.53V272.747H1296.44ZM1296.44 252.94V262.843H1286.53V252.94H1296.44ZM1296.44 243.036V252.94H1286.53V243.036H1296.44ZM1296.44 233.132V243.036H1286.53V233.132H1296.44ZM1296.44 223.228V233.132H1286.53V223.228H1296.44ZM1296.44 213.324V223.228H1286.53V213.324H1296.44ZM1296.44 203.42V213.324H1286.53V203.42H1296.44ZM1296.44 193.517V203.42H1286.53V193.517H1296.44ZM1286.53 233.132V243.036H1276.63V233.132H1286.53ZM1286.53 252.94V262.843H1276.63V252.94H1286.53ZM1286.53 262.843V272.747H1276.63V262.843H1286.53ZM1286.53 272.747V282.651H1276.63V272.747H1286.53ZM1296.44 262.843V272.747H1286.53V262.843H1296.44ZM1286.53 213.324V223.228H1276.63V213.324H1286.53ZM1276.63 213.324V223.228H1266.72V213.324H1276.63ZM1266.72 213.324V223.228H1256.82V213.324H1266.72ZM1266.72 223.228V233.132H1256.82V223.228H1266.72ZM1266.72 233.132V243.036H1256.82V233.132H1266.72ZM1266.72 243.036V252.94H1256.82V243.036H1266.72ZM1266.72 252.94V262.843H1256.82V252.94H1266.72ZM1266.72 262.843V272.747H1256.82V262.843H1266.72ZM1266.72 272.747V282.651H1256.82V272.747H1266.72ZM1276.63 272.747V282.651H1266.72V272.747H1276.63ZM1276.63 262.843V272.747H1266.72V262.843H1276.63ZM1276.63 252.94V262.843H1266.72V252.94H1276.63ZM1276.63 243.036V252.94H1266.72V243.036H1276.63ZM1276.63 233.132V243.036H1266.72V233.132H1276.63ZM1276.63 223.228V233.132H1266.72V223.228H1276.63ZM1286.53 223.228V233.132H1276.63V223.228H1286.53ZM1286.53 243.036V252.94H1276.63V243.036H1286.53ZM1286.53 203.42V213.324H1276.63V203.42H1286.53ZM1286.53 193.517V203.42H1276.63V193.517H1286.53ZM1276.63 193.517V203.42H1266.72V193.517H1276.63ZM1276.63 203.42V213.324H1266.72V203.42H1276.63ZM1256.82 203.42V213.324H1246.92V203.42H1256.82ZM1256.82 193.517V203.42H1246.92V193.517H1256.82ZM1256.82 183.613V193.517H1246.92V183.613H1256.82ZM1276.63 183.613V193.517H1266.72V183.613H1276.63ZM1256.82 143.997V153.901H1246.92V143.997H1256.82ZM1256.82 153.901V163.805H1246.92V153.901H1256.82ZM1266.72 153.901V163.805H1256.82V153.901H1266.72ZM1276.63 153.901V163.805H1266.72V153.901H1276.63ZM1276.63 163.805V173.709H1266.72V163.805H1276.63ZM1286.53 163.805V173.709H1276.63V163.805H1286.53ZM1286.53 173.709V183.613H1276.63V173.709H1286.53ZM1276.63 173.709V183.613H1266.72V173.709H1276.63ZM1266.72 173.709V183.613H1256.82V173.709H1266.72ZM1266.72 163.805V173.709H1256.82V163.805H1266.72ZM1256.82 163.805V173.709H1246.92V163.805H1256.82ZM1246.92 163.805V173.709H1237.01V163.805H1246.92ZM1246.92 173.709V183.613H1237.01V173.709H1246.92ZM1256.82 173.709V183.613H1246.92V173.709H1256.82ZM1246.92 183.613V193.517H1237.01V183.613H1246.92ZM1237.01 173.709V183.613H1227.11V173.709H1237.01ZM1237.01 163.805V173.709H1227.11V163.805H1237.01ZM1237.01 153.901V163.805H1227.11V153.901H1237.01ZM1237.01 143.997V153.901H1227.11V143.997H1237.01ZM1246.92 143.997V153.901H1237.01V143.997H1246.92ZM1246.92 153.901V163.805H1237.01V153.901H1246.92ZM1227.11 143.997V153.901H1217.21V143.997H1227.11ZM1227.11 153.901V163.805H1217.21V153.901H1227.11ZM1217.21 153.901V163.805H1207.3V153.901H1217.21ZM1217.21 163.805V173.709H1207.3V163.805H1217.21ZM1207.3 163.805V173.709H1197.4V163.805H1207.3ZM1207.3 173.709V183.613H1197.4V173.709H1207.3ZM1217.21 173.709V183.613H1207.3V173.709H1217.21ZM1227.11 173.709V183.613H1217.21V173.709H1227.11ZM1227.11 163.805V173.709H1217.21V163.805H1227.11ZM1207.3 183.613V193.517H1197.4V183.613H1207.3ZM1217.21 183.613V193.517H1207.3V183.613H1217.21ZM1207.3 193.517V203.42H1197.4V193.517H1207.3ZM1137.97 143.997V153.901H1128.07V143.997H1137.97ZM1128.07 153.901V163.805H1118.17V153.901H1128.07ZM1217.21 143.997V153.901H1207.3V143.997H1217.21ZM1207.3 153.901V163.805H1197.4V153.901H1207.3ZM1147.88 173.709V183.613H1137.97V173.709H1147.88ZM1177.59 143.997V153.901H1167.69V143.997H1177.59Z" fill="white"/>
<path d="M148.471 172.494C156.112 200.313 173.283 220.162 198.313 231.799C190.233 257.247 170.626 275.295 145.661 283.771C101.242 297.999 44.177 287.657 0 272.068C11.5273 231.601 36.536 177.171 69.7785 151.591C92.1305 170.43 118.72 178.203 148.471 172.494Z" fill="#FEC735"/>
<path d="M151.853 9.26768C146.759 38.6019 153.544 66.4869 172.997 88.773C153.346 108.578 144.278 133.894 146.496 161.516C120.148 167.224 93.8654 159.144 73.9945 140.525C40.9057 109.873 21.8033 56.2331 12.5156 10.1678C54.453 -0.612913 108.379 -5.53119 151.875 9.2457L151.853 9.26768Z" fill="#FEC735"/>
<path d="M285.13 222.313C340.988 285.351 269.739 372.651 220.621 413.973C190.124 381.895 157.913 335.654 151.041 293.76C179.123 283.682 199.214 263.306 208.875 235.663C235.728 242.843 261.9 238.451 285.13 222.313Z" fill="#FEC735"/>
<path d="M231.996 227.298C272.619 227.298 305.551 194.366 305.551 153.743C305.551 113.119 272.619 80.1875 231.996 80.1875C191.372 80.1875 158.44 113.119 158.44 153.743C158.44 194.366 191.372 227.298 231.996 227.298Z" fill="white"/>
</svg>
