<svg width="658" height="891" viewBox="0 0 658 891" fill="none" xmlns="http://www.w3.org/2000/svg">
<path d="M319.469 371.159C335.911 431.018 372.856 473.727 426.715 498.767C409.329 553.524 367.14 592.359 313.422 610.596C217.846 641.21 95.0566 618.958 0 585.414C24.8035 498.342 78.6154 381.222 150.144 326.182C198.239 366.718 255.453 383.442 319.469 371.159Z" fill="#FEC735"/>
<path d="M326.745 19.9415C315.784 83.0606 330.383 143.061 372.242 191.015C329.958 233.63 310.446 288.103 315.217 347.537C258.524 359.821 201.972 342.435 159.215 302.371C88.017 236.417 46.914 120.998 26.9294 21.8784C117.167 -1.31882 233.2 -11.9016 326.792 19.8942L326.745 19.9415Z" fill="#FEC735"/>
<path d="M613.522 478.357C733.712 613.997 580.403 801.842 474.716 890.757C409.093 821.732 339.785 722.235 324.997 632.092C385.423 610.406 428.652 566.563 449.44 507.082C507.221 522.531 563.537 513.082 613.522 478.357Z" fill="#FEC735"/>
<path d="M499.19 489.082C586.6 489.082 657.46 418.222 657.46 330.812C657.46 243.401 586.6 172.542 499.19 172.542C411.78 172.542 340.92 243.401 340.92 330.812C340.92 418.222 411.78 489.082 499.19 489.082Z" fill="white"/>
</svg>
