<svg width="16" height="16" viewBox="0 0 16 16" fill="none" xmlns="http://www.w3.org/2000/svg">
<path d="M8 2C7.44772 2 7 2.44772 7 3V6.5C7 7.05228 6.55228 7.5 6 7.5C5.44772 7.5 5 7.94772 5 8.5V10.5C5 11.0523 4.55228 11.5 4 11.5C3.44772 11.5 3 11.9477 3 12.5V14C3 14.5523 3.44772 15 4 15H12C12.5523 15 13 14.5523 13 14V12.5C13 11.9477 12.5523 11.5 12 11.5C11.4477 11.5 11 11.0523 11 10.5V8.5C11 7.94772 10.5523 7.5 10 7.5C9.44772 7.5 9 7.05228 9 6.5V3C9 2.44772 8.55228 2 8 2Z" stroke="#9CA3AF" stroke-width="1.5" stroke-linecap="round" stroke-linejoin="round"/>
</svg>