<svg width="16" height="16" viewBox="0 0 16 16" fill="none" xmlns="http://www.w3.org/2000/svg">
<path d="M8 3V8L10.5 10.5M8 13V8L5.5 5.5M14 6.5C14 5.11929 12.8807 4 11.5 4H10.5V3.5C10.5 2.67157 9.82843 2 9 2H7C6.17157 2 5.5 2.67157 5.5 3.5V4H4.5C3.11929 4 2 5.11929 2 6.5V9.5C2 10.8807 3.11929 12 4.5 12H5.5V12.5C5.5 13.3284 6.17157 14 7 14H9C9.82843 14 10.5 13.3284 10.5 12.5V12H11.5C12.8807 12 14 10.8807 14 9.5V6.5Z" stroke="#9CA3AF" stroke-width="1.5" stroke-linecap="round" stroke-linejoin="round"/>
</svg>