<svg width="16" height="16" viewBox="0 0 16 16" fill="none" xmlns="http://www.w3.org/2000/svg">
<path d="M14.4624 2.77127C14.4624 2.77127 14.4624 2.77752 14.4624 2.78065L10.8249 14.7769C10.7699 14.9717 10.6566 15.1451 10.5002 15.2737C10.3438 15.4023 10.1518 15.4799 9.94995 15.4963C9.9212 15.4988 9.89245 15.5 9.8637 15.5C9.67457 15.5006 9.48922 15.4471 9.32953 15.3457C9.16983 15.2444 9.04246 15.0995 8.96245 14.9281L6.68745 10.2594C6.66468 10.2126 6.65709 10.1599 6.66571 10.1086C6.67434 10.0573 6.69876 10.0099 6.73557 9.97315L10.3556 6.35315C10.4454 6.25861 10.4947 6.13274 10.493 6.00236C10.4914 5.87198 10.4388 5.74741 10.3466 5.65521C10.2544 5.56301 10.1299 5.51047 9.99949 5.5088C9.8691 5.50713 9.74323 5.55646 9.6487 5.64627L6.02682 9.26627C5.99005 9.30308 5.94271 9.3275 5.8914 9.33613C5.84009 9.34476 5.78736 9.33716 5.74057 9.31439L1.06745 7.04002C0.884711 6.95235 0.732927 6.81122 0.632209 6.63534C0.531492 6.45946 0.486597 6.25712 0.503473 6.05514C0.52035 5.85317 0.598201 5.66109 0.726711 5.50436C0.85522 5.34763 1.02832 5.23365 1.22307 5.17752L13.2193 1.54002H13.2287C13.3995 1.49203 13.58 1.49035 13.7517 1.53515C13.9233 1.57994 14.08 1.6696 14.2056 1.79492C14.3311 1.92025 14.4211 2.07672 14.4663 2.2483C14.5114 2.41987 14.5101 2.60037 14.4624 2.77127Z" fill="#9CA3AF"/>
</svg>
