<svg width="20" height="20" viewBox="0 0 20 20" fill="none" xmlns="http://www.w3.org/2000/svg">
<path d="M10 2C9.44772 2 9 2.44772 9 3V7.5C9 8.05228 8.55228 8.5 8 8.5C7.44772 8.5 7 8.94772 7 9.5V12.5C7 13.0523 6.55228 13.5 6 13.5C5.44772 13.5 5 13.9477 5 14.5V17C5 17.5523 5.44772 18 6 18H14C14.5523 18 15 17.5523 15 17V14.5C15 13.9477 14.5523 13.5 14 13.5C13.4477 13.5 13 13.0523 13 12.5V9.5C13 8.94772 12.5523 8.5 12 8.5C11.4477 8.5 11 8.05228 11 7.5V3C11 2.44772 10.55228 2 10 2Z" stroke="#FFFFFF" stroke-width="1.5" stroke-linecap="round" stroke-linejoin="round"/>
<path d="M9 7L8 6L7 7L8 8L9 7Z" stroke="#FFFFFF" stroke-width="1.5" stroke-linecap="round" stroke-linejoin="round"/>
<path d="M13 7L12 6L11 7L12 8L13 7Z" stroke="#FFFFFF" stroke-width="1.5" stroke-linecap="round" stroke-linejoin="round"/>
</svg>